# xmcd
# 
# Track frame offsets:
#     150
#     11470
#     19112
#     44113
#     57727
#     69389
#     81964
#     115926
#     129530
#     140797
#     151732
#     164543
#     177555
#     188251
#     200397
#     217383
#     228783
#     246388
#     260861
#     271574
#     283500
#     294823
#     312552
#     335673
# 
# Disc length: 4567
# 
# Revision: 3
# Processed by: cddbd v1.5.2PL0 Copyright (c) Steve Scherf et al.
# Submitted via: BonkEnc v1.0.8
# 
DISCID=7111d518
DTITLE=Staple Singers - The Ultimate Staple Singers - A Family Affair 1955-1984 [CD1]
DYEAR=2004
DGENRE=Soul
TTITLE0=Hammer And Nails
TTITLE1=Nobody's Fault But Mine
TTITLE2=Too Close
TTITLE3=Uncloudy Day
TTITLE4=Won't You Sit Down (Sit Down Servant)
TTITLE5=I Wish I Had Answered
TTITLE6=A Hard Rain's A Gonna Fall
TTITLE7=Swing Low
TTITLE8=This May Be The Last Time
TTITLE9=For What It's Worth
TTITLE10=Be Careful Of Stones That You Throw
TTITLE11=Why (Am I Treated So Bad)
TTITLE12=It's Been A Change
TTITLE13=Will The Circle Be Unbroken
TTITLE14=The Ghetto
TTITLE15=Long Walk To DC
TTITLE16=God Bless The Children
TTITLE17=(Sittin' On) The Dock Of The Bay
TTITLE18=The Gardener
TTITLE19=When Will We Be Paid For The Work We Did
TTITLE20=Who Took The Merry Out Of Christmas
TTITLE21=John Henry (Pop Staples)
TTITLE22=You're Gonna Make Me Cry
TTITLE23=Solon Bushi
EXTD=
EXTT0=
EXTT1=
EXTT2=
EXTT3=
EXTT4=
EXTT5=
EXTT6=
EXTT7=
EXTT8=
EXTT9=
EXTT10=
EXTT11=
EXTT12=
EXTT13=
EXTT14=
EXTT15=
EXTT16=
EXTT17=
EXTT18=
EXTT19=
EXTT20=
EXTT21=
EXTT22=
EXTT23=
PLAYORDER=
